<svg xmlns="http://www.w3.org/2000/svg" width="150" viewBox="0 0 150 150" height="150" version="1.0"><defs><clipPath id="a"><path d="M 0 29.6875 L 150 29.6875 L 150 120.4375 L 0 120.4375 Z M 0 29.6875"/></clipPath></defs><g clip-path="url(#a)"><path fill="#FFF" d="M 17.914062 29.6875 C 15.59375 29.6875 13.730469 31.515625 13.730469 33.785156 L 13.730469 108.761719 C 13.730469 110.921875 13.425781 112.679688 15.390625 112.847656 L 1.640625 112.847656 C 0.015625 112.847656 0.847656 114.117188 0.847656 115.695312 L 0.847656 117.59375 C 0.847656 119.167969 2.15625 120.4375 3.78125 120.4375 L 146.214844 120.4375 C 147.84375 120.4375 149.152344 119.167969 149.152344 117.59375 L 149.152344 115.695312 C 149.152344 114.117188 149.984375 112.847656 148.359375 112.847656 L 134.609375 112.847656 C 136.574219 112.679688 136.269531 110.921875 136.269531 108.761719 L 136.269531 33.785156 C 136.269531 31.515625 134.402344 29.6875 132.085938 29.6875 Z M 54.054688 30.679688 C 54.648438 30.679688 55.132812 31.152344 55.132812 31.738281 C 55.132812 32.320312 54.648438 32.792969 54.054688 32.792969 C 53.460938 32.792969 52.976562 32.320312 52.976562 31.738281 C 52.976562 31.152344 53.460938 30.679688 54.054688 30.679688 Z M 17.8125 33.792969 L 132.1875 33.792969 L 132.1875 108.753906 L 17.8125 108.753906 Z M 56.40625 112.859375 L 93.59375 112.859375 C 93.539062 113.65625 92.988281 114.273438 92.308594 114.273438 L 57.691406 114.273438 C 57.011719 114.273438 56.460938 113.65625 56.40625 112.859375 Z M 131.914062 115.105469 C 132.789062 115.105469 133.5 115.792969 133.5 116.644531 C 133.5 117.492188 132.789062 118.179688 131.914062 118.179688 C 131.039062 118.179688 130.328125 117.492188 130.328125 116.644531 C 130.328125 115.792969 131.039062 115.105469 131.914062 115.105469 Z M 136.914062 115.105469 C 137.792969 115.105469 138.5 115.792969 138.5 116.644531 C 138.5 117.492188 137.792969 118.179688 136.914062 118.179688 C 136.039062 118.179688 135.328125 117.492188 135.328125 116.644531 C 135.328125 115.792969 136.039062 115.105469 136.914062 115.105469 Z M 141.917969 115.105469 C 142.792969 115.105469 143.503906 115.792969 143.503906 116.644531 C 143.503906 117.492188 142.792969 118.179688 141.917969 118.179688 C 141.042969 118.179688 140.332031 117.492188 140.332031 116.644531 C 140.332031 115.792969 141.042969 115.105469 141.917969 115.105469 Z M 7.175781 116.125 L 15.496094 116.125 C 15.902344 116.125 16.230469 116.355469 16.230469 116.644531 C 16.230469 116.929688 15.902344 117.164062 15.496094 117.164062 L 7.175781 117.164062 C 6.769531 117.164062 6.441406 116.929688 6.441406 116.644531 C 6.441406 116.355469 6.769531 116.125 7.175781 116.125 Z M 7.175781 116.125"/></g><g fill="#FFF"><g><g><path d="M 14.71875 -22.8125 L 14.71875 -18.25 L 6.859375 -18.25 L 6.859375 -13.71875 L 14.375 -13.71875 L 14.375 -9.15625 L 6.859375 -9.15625 L 6.859375 -4.5625 L 14.71875 -4.5625 L 14.71875 0 L 1.65625 0 L 1.65625 -22.8125 Z M 14.71875 -22.8125" transform="translate(36.724 82.608)"/></g></g></g><g fill="#FFF"><g><g><path d="M 2.625 -1.75 C 1.300781 -3.195312 0.640625 -4.972656 0.640625 -7.078125 C 0.640625 -9.179688 1.300781 -10.960938 2.625 -12.421875 C 3.957031 -13.878906 5.644531 -14.609375 7.6875 -14.609375 C 9.570312 -14.609375 11.117188 -14.015625 12.328125 -12.828125 L 12.328125 -23.78125 L 17.234375 -23.78125 L 17.234375 0 L 12.390625 0 L 12.390625 -1.609375 L 12.328125 -1.609375 C 11.117188 -0.253906 9.570312 0.421875 7.6875 0.421875 C 5.644531 0.421875 3.957031 -0.300781 2.625 -1.75 Z M 6.78125 -9.484375 C 6.144531 -8.859375 5.828125 -8.054688 5.828125 -7.078125 C 5.828125 -6.097656 6.128906 -5.300781 6.734375 -4.6875 C 7.347656 -4.070312 8.15625 -3.765625 9.15625 -3.765625 C 10.113281 -3.765625 10.898438 -4.078125 11.515625 -4.703125 C 12.140625 -5.328125 12.453125 -6.117188 12.453125 -7.078125 C 12.453125 -8.054688 12.128906 -8.859375 11.484375 -9.484375 C 10.847656 -10.109375 10.070312 -10.421875 9.15625 -10.421875 C 8.21875 -10.421875 7.425781 -10.109375 6.78125 -9.484375 Z M 6.78125 -9.484375" transform="translate(51.386 82.608)"/></g></g></g><g fill="#FFF"><g><g><path d="M 12.421875 -14.1875 L 18.0625 -14.1875 L 6.921875 7.1875 L 1.265625 7.1875 L 6.171875 -2.21875 L -0.546875 -14.1875 L 5.09375 -14.1875 L 9.046875 -6.921875 Z M 12.421875 -14.1875" transform="translate(68.897 82.608)"/></g></g></g><g fill="#FFF"><g><g><path d="M 2.484375 -14.1875 L 2.484375 -19.46875 L 7.390625 -19.46875 L 7.390625 -14.1875 L 10.375 -14.1875 L 10.375 -10.453125 L 7.390625 -10.453125 L 7.390625 -5.953125 C 7.390625 -4.640625 7.753906 -3.984375 8.484375 -3.984375 C 8.671875 -3.984375 8.863281 -4.019531 9.0625 -4.09375 C 9.269531 -4.164062 9.429688 -4.238281 9.546875 -4.3125 L 9.703125 -4.421875 L 10.921875 -0.46875 C 9.867188 0.125 8.671875 0.421875 7.328125 0.421875 C 6.410156 0.421875 5.617188 0.257812 4.953125 -0.0625 C 4.285156 -0.382812 3.78125 -0.816406 3.4375 -1.359375 C 3.101562 -1.910156 2.859375 -2.484375 2.703125 -3.078125 C 2.554688 -3.679688 2.484375 -4.320312 2.484375 -5 L 2.484375 -10.453125 L 0.4375 -10.453125 L 0.4375 -14.1875 Z M 2.484375 -14.1875" transform="translate(85.025 82.608)"/></g></g></g><g fill="#FFF"><g><g><path d="M 2.625 -1.75 C 1.300781 -3.195312 0.640625 -4.972656 0.640625 -7.078125 C 0.640625 -9.179688 1.300781 -10.960938 2.625 -12.421875 C 3.957031 -13.878906 5.644531 -14.609375 7.6875 -14.609375 C 9.570312 -14.609375 11.117188 -14.015625 12.328125 -12.828125 L 12.328125 -14.1875 L 17.234375 -14.1875 L 17.234375 0 L 12.390625 0 L 12.390625 -1.609375 L 12.328125 -1.609375 C 11.117188 -0.253906 9.570312 0.421875 7.6875 0.421875 C 5.644531 0.421875 3.957031 -0.300781 2.625 -1.75 Z M 6.78125 -9.484375 C 6.144531 -8.859375 5.828125 -8.054688 5.828125 -7.078125 C 5.828125 -6.097656 6.128906 -5.300781 6.734375 -4.6875 C 7.347656 -4.070312 8.15625 -3.765625 9.15625 -3.765625 C 10.113281 -3.765625 10.898438 -4.078125 11.515625 -4.703125 C 12.140625 -5.328125 12.453125 -6.117188 12.453125 -7.078125 C 12.453125 -8.054688 12.128906 -8.859375 11.484375 -9.484375 C 10.847656 -10.109375 10.070312 -10.421875 9.15625 -10.421875 C 8.21875 -10.421875 7.425781 -10.109375 6.78125 -9.484375 Z M 6.78125 -9.484375" transform="translate(94.57 82.608)"/></g></g></g></svg>